# xmcd
#
# Track frame offsets:
#	150
#	20233
#	36014
#	52466
#	72322
#	86850
#	106307
#	124504
#	141616
#	159573
#	179656
#	195437
#	211889
#	231745
#	246273
#	265730
#	283927
#	301039
#
# Disc length: 4253 seconds
#
# Revision: 1
# Processed by: cddbd v1.5.2PL0 Copyright (c) Steve Scherf et al.
# Submitted via: audiograbber 1.83.01
#
DISCID=1c109b12
DTITLE=Various Artist - PHMC0813
DYEAR=2013
DGENRE=Country Karaoke
TTITLE0=Kellie Pickler - Someone Somewhere Tonight
TTITLE1=Gretchen Wilson - Crazy
TTITLE2=Sara Watkins - You and Me
TTITLE3=Lee Brice - One More Day
TTITLE4=Matt Farris - Redneck Radio
TTITLE5=Gretchen Wilson - Grandma
TTITLE6=Chris Weaver Band - Travelin On
TTITLE7=Brandon Rhyder - Haggard
TTITLE8=Adrianna Freeman - Just A Girl
TTITLE9=Kellie Pickler - Someone Somewhere Tonight (Vocals)
TTITLE10=Gretchen Wilson - Crazy (Vocals)
TTITLE11=Sara Watkins - You and Me (Vocals)
TTITLE12=Lee Brice - One More Day (Vocals)
TTITLE13=Matt Farris - Redneck Radio (Vocals)
TTITLE14=Gretchen Wilson - Grandma (Vocals)
TTITLE15=Chris Weaver Band - Travelin On (Vocals)
TTITLE16=Brandon Rhyder - Haggard (Vocals)
TTITLE17=Adrianna Freeman - Just A Girl (Vocals)
EXTD=
EXTT0=
EXTT1=
EXTT2=
EXTT3=
EXTT4=
EXTT5=
EXTT6=
EXTT7=
EXTT8=
EXTT9=
EXTT10=
EXTT11=
EXTT12=
EXTT13=
EXTT14=
EXTT15=
EXTT16=
EXTT17=
PLAYORDER=
